<svg xmlns="http://www.w3.org/2000/svg" x="0px" y="0px" width="auto" height="auto" viewBox="0 0 226 226" style="fill:#000000"><defs><linearGradient x1="113" y1="166.55847" x2="113" y2="185.98741" gradientUnits="userSpaceOnUse" id="color-1_43648_gr1"><stop offset="0" stop-color="#8ab4ff"/><stop offset="1" stop-color="#df5151"/></linearGradient><linearGradient x1="113" y1="38.84375" x2="113" y2="186.02272" gradientUnits="userSpaceOnUse" id="color-2_43648_gr2"><stop offset="0" stop-color="#1a6dff"/><stop offset="1" stop-color="#a21e1e"/></linearGradient><linearGradient x1="77.6875" y1="38.84375" x2="77.6875" y2="186.02272" gradientUnits="userSpaceOnUse" id="color-3_43648_gr3"><stop offset="0" stop-color="#1a6dff"/><stop offset="1" stop-color="#a21e1e"/></linearGradient><linearGradient x1="70.625" y1="38.84375" x2="70.625" y2="186.02272" gradientUnits="userSpaceOnUse" id="color-4_43648_gr4"><stop offset="0" stop-color="#1a6dff"/><stop offset="1" stop-color="#a21e1e"/></linearGradient><linearGradient x1="156.62153" y1="38.84375" x2="156.62153" y2="186.02272" gradientUnits="userSpaceOnUse" id="color-5_43648_gr5"><stop offset="0" stop-color="#1a6dff"/><stop offset="1" stop-color="#a21e1e"/></linearGradient><linearGradient x1="77.6875" y1="38.84375" x2="77.6875" y2="186.02272" gradientUnits="userSpaceOnUse" id="color-6_43648_gr6"><stop offset="0" stop-color="#1a6dff"/><stop offset="1" stop-color="#a21e1e"/></linearGradient><linearGradient x1="70.625" y1="38.84375" x2="70.625" y2="186.02272" gradientUnits="userSpaceOnUse" id="color-7_43648_gr7"><stop offset="0" stop-color="#1a6dff"/><stop offset="1" stop-color="#a21e1e"/></linearGradient><linearGradient x1="156.62153" y1="38.84375" x2="156.62153" y2="186.02272" gradientUnits="userSpaceOnUse" id="color-8_43648_gr8"><stop offset="0" stop-color="#1a6dff"/><stop offset="1" stop-color="#a21e1e"/></linearGradient></defs><g fill="none" fill-rule="nonzero" stroke="none" stroke-width="1" stroke-linecap="butt" stroke-linejoin="miter" stroke-miterlimit="10" stroke-dasharray="" stroke-dashoffset="0" font-family="none" font-weight="none" font-size="none" text-anchor="none" style="mix-blend-mode:normal"><path d="M0,226v-226h226v226z" fill="none"/><g><path d="M28.25,169.5h169.5v10.59375h-169.5z" fill="url(#color-1_43648_gr1)"/><path d="M194.21875,38.84375h-162.4375c-5.84069,0 -10.59375,4.75306 -10.59375,10.59375v113v14.125c0,5.84069 4.75306,10.59375 10.59375,10.59375h162.4375c5.84069,0 10.59375,-4.75306 10.59375,-10.59375v-14.125v-113c0,-5.84069 -4.75306,-10.59375 -10.59375,-10.59375zM194.21875,180.09375h-162.4375c-1.94925,0 -3.53125,-1.582 -3.53125,-3.53125v-4.181c1.10881,0.3955 2.28825,0.64975 3.53125,0.64975h162.4375c1.243,0 2.42244,-0.25425 3.53125,-0.64975v4.181c0,1.94925 -1.582,3.53125 -3.53125,3.53125zM194.21875,165.96875h-162.4375c-1.94925,0 -3.53125,-1.582 -3.53125,-3.53125v-113c0,-1.94925 1.582,-3.53125 3.53125,-3.53125h162.4375c1.94925,0 3.53125,1.582 3.53125,3.53125v113c0,1.94925 -1.582,3.53125 -3.53125,3.53125z" fill="url(#color-2_43648_gr2)"/><path d="M42.375,70.625h70.625v7.0625h-70.625z" fill="url(#color-3_43648_gr3)"/><path d="M42.375,84.75h56.5v7.0625h-56.5z" fill="url(#color-4_43648_gr4)"/><path d="M169.58475,65.54706c-3.76431,-3.41472 -8.73984,-5.51581 -14.20975,-5.51581c-11.68491,0 -21.1875,9.50259 -21.1875,21.1875c0,11.68491 9.50259,21.1875 21.1875,21.1875c11.68491,0 21.1875,-9.50259 21.1875,-21.1875c0,-3.65484 -0.92872,-7.09428 -2.56369,-10.09937l5.06028,-5.06028l-4.99319,-4.99319zM169.5,81.21875c0,7.78994 -6.33506,14.125 -14.125,14.125c-7.78994,0 -14.125,-6.33506 -14.125,-14.125c0,-7.78994 6.33506,-14.125 14.125,-14.125c3.52066,0 6.70584,1.34188 9.18478,3.47828l-9.18478,9.18478l-4.56591,-4.56591l-4.99319,4.99319l9.55909,9.55909l13.25278,-13.25278c0.52969,1.48666 0.87222,3.06159 0.87222,4.72834z" fill="url(#color-5_43648_gr5)"/><path d="M42.375,120.0625h70.625v7.0625h-70.625z" fill="url(#color-6_43648_gr6)"/><path d="M42.375,134.1875h56.5v7.0625h-56.5z" fill="url(#color-7_43648_gr7)"/><path d="M174.06591,110.50341l-4.48116,4.48116c-3.76431,-3.41472 -8.73984,-5.51581 -14.20975,-5.51581c-11.68491,0 -21.1875,9.50259 -21.1875,21.1875c0,11.68491 9.50259,21.1875 21.1875,21.1875c11.68491,0 21.1875,-9.50259 21.1875,-21.1875c0,-3.65484 -0.92872,-7.09428 -2.56369,-10.09937l5.06028,-5.06028zM169.5,130.65625c0,7.78994 -6.33506,14.125 -14.125,14.125c-7.78994,0 -14.125,-6.33506 -14.125,-14.125c0,-7.78994 6.33506,-14.125 14.125,-14.125c3.52066,0 6.70584,1.34188 9.18478,3.47828l-9.18478,9.18478l-4.56591,-4.56591l-4.99319,4.99319l9.55909,9.55909l13.25278,-13.25278c0.52969,1.48666 0.87222,3.06159 0.87222,4.72834z" fill="url(#color-8_43648_gr8)"/></g></g></svg>