<svg xmlns="http://www.w3.org/2000/svg" x="0px" y="0px" width="auto" height="auto" viewBox="0 0 226 226" style="fill:#000000"><defs><linearGradient x1="38.84375" y1="101.52344" x2="38.84375" y2="183.70269" gradientUnits="userSpaceOnUse" id="color-1_49446_gr1"><stop offset="0" stop-color="#8ab4ff"/><stop offset="1" stop-color="#de646b"/></linearGradient><linearGradient x1="113" y1="15.88709" x2="113" y2="211.0275" gradientUnits="userSpaceOnUse" id="color-2_49446_gr2"><stop offset="0" stop-color="#1a6dff"/><stop offset="1" stop-color="#ac252e"/></linearGradient><linearGradient x1="137.71875" y1="15.89063" x2="137.71875" y2="211.02397" gradientUnits="userSpaceOnUse" id="color-3_49446_gr3"><stop offset="0" stop-color="#1a6dff"/><stop offset="1" stop-color="#ac252e"/></linearGradient><linearGradient x1="158.90625" y1="15.89063" x2="158.90625" y2="211.02397" gradientUnits="userSpaceOnUse" id="color-4_49446_gr4"><stop offset="0" stop-color="#1a6dff"/><stop offset="1" stop-color="#ac252e"/></linearGradient><linearGradient x1="158.90625" y1="15.89063" x2="158.90625" y2="211.02397" gradientUnits="userSpaceOnUse" id="color-5_49446_gr5"><stop offset="0" stop-color="#1a6dff"/><stop offset="1" stop-color="#ac252e"/></linearGradient><linearGradient x1="116.53125" y1="15.89063" x2="116.53125" y2="211.02397" gradientUnits="userSpaceOnUse" id="color-6_49446_gr6"><stop offset="0" stop-color="#1a6dff"/><stop offset="1" stop-color="#ac252e"/></linearGradient><linearGradient x1="116.53125" y1="15.89063" x2="116.53125" y2="211.02397" gradientUnits="userSpaceOnUse" id="color-7_49446_gr7"><stop offset="0" stop-color="#1a6dff"/><stop offset="1" stop-color="#ac252e"/></linearGradient></defs><g fill="none" fill-rule="nonzero" stroke="none" stroke-width="1" stroke-linecap="butt" stroke-linejoin="miter" stroke-miterlimit="10" stroke-dasharray="" stroke-dashoffset="0" font-family="none" font-weight="none" font-size="none" text-anchor="none" style="mix-blend-mode:normal"><path d="M0,226v-226h226v226z" fill="none"/><g><path d="M28.25,109.46875h21.1875v67.09375h-21.1875z" fill="url(#color-1_49446_gr1)"/><path d="M199.25784,137.06194c-3.30525,-2.44009 -7.72284,-3.15341 -12.12631,-1.93866l-53.98928,14.92659c0.66034,-1.64203 1.04525,-3.42531 1.04525,-5.30041c0,-7.77228 -6.33506,-14.09322 -14.125,-14.09322h-33.11253c-2.35534,-3.53125 -8.34434,-14.125 -16.32497,-14.125h-14.125v-3.53125c0,-5.84069 -4.75306,-10.59375 -10.59375,-10.59375h-14.125c-5.84422,0 -10.59375,4.75306 -10.59375,10.59375v60.03125c0,5.84422 4.74953,10.59375 10.59022,10.59375h14.125c5.84069,0 10.59375,-4.74953 10.59375,-10.59022v-2.65903l42.86938,28.95978c5.38162,3.64425 11.64606,5.47697 17.92109,5.47697c5.79831,0 11.60369,-1.56081 16.74519,-4.70009l64.17341,-39.20041c4.07859,-2.486 6.60697,-6.99541 6.60697,-11.77319v-1.10528c0,-4.34697 -2.02341,-8.34434 -5.55466,-10.97159zM49.4375,173.03478c0,1.94925 -1.58553,3.52772 -3.53125,3.52772h-3.53125v-14.125h-7.0625v14.125h-3.53478c-1.94572,0 -3.52772,-1.57847 -3.52772,-3.52772v-60.03478c0,-1.94925 1.582,-3.53125 3.52772,-3.53125h14.125c1.94925,0 3.53125,1.58553 3.53125,3.53125v60.03478zM197.75,149.13881c0,2.33062 -1.23241,4.53059 -3.22403,5.74534l-64.17694,39.20041c-8.35141,5.09913 -18.95575,4.86606 -27.02466,-0.60031l-46.82437,-31.63647v-38.25403h14.125c3.74312,0 8.71866,7.18256 10.9045,12.03803l0.93578,2.08697h37.59722c3.89497,0 7.0625,3.15341 7.0625,7.02366c0,3.91616 -3.16753,7.10134 -7.0625,7.10134h-17.65625h-17.65625v7.0625h17.65625h17.65625h7.0625l61.88516,-16.97472c2.27059,-0.62856 4.51647,-0.32134 6.03844,0.80513c1.71619,1.27478 2.70141,3.20637 2.70141,5.29688z" fill="url(#color-2_49446_gr2)"/><path d="M95.34375,105.9375h84.75c9.73566,0 17.65625,-7.92059 17.65625,-17.65978v-45.90625c0,-5.83716 -4.74953,-10.59022 -10.59375,-10.59022h-3.53125v-0.00353c0,-5.84069 -4.74953,-10.59022 -10.59375,-10.59022h-21.1875c-5.71003,0 -10.74559,2.7685 -13.97316,6.98834c-3.20991,-4.37875 -8.39378,-6.98834 -14.27684,-6.98834h-21.1875c-5.84069,0 -10.59375,4.74953 -10.59375,10.59022v0.00353h-3.53125c-5.84069,0 -10.59375,4.75306 -10.59375,10.59022v45.90625c0,9.73919 7.92059,17.65978 17.65625,17.65978zM187.15625,38.84375c1.94925,0 3.53125,1.582 3.53125,3.52772v45.90625c0,5.84422 -4.74953,10.59728 -10.59375,10.59728h-38.32819c1.33481,-3.53125 4.78131,-7.06603 10.07819,-7.06603v0.00353h21.1875c5.84069,0 10.59375,-4.75306 10.59375,-10.59728v-42.37147zM151.84375,28.25h21.1875c1.94925,0 3.53125,1.582 3.53125,3.52772v49.4375c0,1.94925 -1.582,3.53478 -3.53125,3.53478h-21.1875v-0.00353c-3.53125,0 -7.0625,1.34541 -10.59375,3.57716v-49.47988c0,-5.84069 4.75306,-10.59375 10.59375,-10.59375zM98.875,31.77772c0,-1.94572 1.582,-3.52772 3.53125,-3.52772h21.1875c5.84069,0 10.59375,3.53125 10.59375,10.59375v49.48341c-3.53125,-2.23175 -6.61403,-3.57716 -10.59375,-3.57716h-21.1875c-1.94925,0 -3.53125,-1.58553 -3.53125,-3.53478zM84.75,42.37147c0,-1.94572 1.582,-3.52772 3.53125,-3.52772h3.53125v42.37147c0,5.84422 4.75306,10.59728 10.59375,10.59728h21.1875c4.75659,0 8.74337,3.53125 10.07819,7.0625h-38.32819c-5.84069,0 -10.59375,-4.75306 -10.59375,-10.59728z" fill="url(#color-3_49446_gr3)"/><path d="M148.3125,45.90625h21.1875v7.0625h-21.1875z" fill="url(#color-4_49446_gr4)"/><path d="M148.3125,60.03125h21.1875v7.0625h-21.1875z" fill="url(#color-5_49446_gr5)"/><path d="M105.9375,45.90625h21.1875v7.0625h-21.1875z" fill="url(#color-6_49446_gr6)"/><path d="M105.9375,60.03125h21.1875v7.0625h-21.1875z" fill="url(#color-7_49446_gr7)"/></g></g></svg>