<svg xmlns="http://www.w3.org/2000/svg" x="0px" y="0px" width="auto" height="auto" viewBox="0 0 226 226" style="fill:#000000">
    <defs>
        <linearGradient x1="109.46875" y1="101.23034" x2="109.46875" y2="153.77181" gradientUnits="userSpaceOnUse" id="color-1_44030_gr1">
            <stop offset="0" stop-color="#8ab4ff"/>
            <stop offset="1" stop-color="#df8c8c"/>
        </linearGradient>
        <linearGradient x1="113" y1="34.42969" x2="113" y2="192.74975" gradientUnits="userSpaceOnUse" id="color-2_44030_gr2">
            <stop offset="0" stop-color="#1a6dff"/>
            <stop offset="1" stop-color="#c43737"/>
        </linearGradient>
        <linearGradient x1="81.21875" y1="34.42969" x2="81.21875" y2="192.74975" gradientUnits="userSpaceOnUse" id="color-3_44030_gr3">
            <stop offset="0" stop-color="#1a6dff"/>
            <stop offset="1" stop-color="#c43737"/>
        </linearGradient>
        <linearGradient x1="81.21875" y1="34.42969" x2="81.21875" y2="192.74975" gradientUnits="userSpaceOnUse" id="color-4_44030_gr4">
            <stop offset="0" stop-color="#1a6dff"/>
            <stop offset="1" stop-color="#c43737"/>
        </linearGradient>
        <linearGradient x1="61.79688" y1="34.42969" x2="61.79688" y2="192.74975" gradientUnits="userSpaceOnUse" id="color-5_44030_gr5">
            <stop offset="0" stop-color="#1a6dff"/>
            <stop offset="1" stop-color="#c43737"/>
        </linearGradient>
        <linearGradient x1="61.79688" y1="34.42969" x2="61.79688" y2="192.74975" gradientUnits="userSpaceOnUse" id="color-6_44030_gr6">
            <stop offset="0" stop-color="#1a6dff"/>
            <stop offset="1" stop-color="#c43737"/>
        </linearGradient>
        <linearGradient x1="61.79688" y1="34.42969" x2="61.79688" y2="192.74975" gradientUnits="userSpaceOnUse" id="color-7_44030_gr7">
            <stop offset="0" stop-color="#1a6dff"/>
            <stop offset="1" stop-color="#c43737"/>
        </linearGradient>
        <linearGradient x1="61.79688" y1="34.42969" x2="61.79688" y2="192.74975" gradientUnits="userSpaceOnUse" id="color-8_44030_gr8">
            <stop offset="0" stop-color="#1a6dff"/>
            <stop offset="1" stop-color="#c43737"/>
        </linearGradient>
    </defs>
    <g fill="none" fill-rule="nonzero" stroke="none" stroke-width="1" stroke-linecap="butt" stroke-linejoin="miter" stroke-miterlimit="10" stroke-dasharray="" stroke-dashoffset="0" font-family="none" font-weight="none" font-size="none" text-anchor="none" style="mix-blend-mode:normal">
        <path d="M0,226v-226h226v226z" fill="none"/>
        <g>
            <path d="M120.0625,151.84375h-21.1875c-1.94925,0 -3.53125,-1.582 -3.53125,-3.53125v-42.375c0,-1.94925 1.582,-3.53125 3.53125,-3.53125h21.1875c1.94925,0 3.53125,1.582 3.53125,3.53125v42.375c0,1.94925 -1.582,3.53125 -3.53125,3.53125z" fill="url(#color-1_44030_gr1)"/>
            <path d="M188.88303,67.17497c-0.57913,-0.05297 -1.15119,0.01766 -1.72678,0.01766v-0.09887h-38.84375v-21.1875c0,-5.84069 -4.75306,-10.59375 -10.59375,-10.59375h-105.9375c-5.84069,0 -10.59375,4.75306 -10.59375,10.59375v127.125c0,9.73566 7.92059,17.65625 17.65625,17.65625h120.0625v0c0.01412,0 0.02472,0 0.03884,0c0.55794,0 1.11941,-0.02825 1.68441,-0.08122c8.93406,-0.85103 15.933,-8.83872 15.933,-18.18241v-9.98638h21.1875c3.89497,0 7.0625,-3.16753 7.0625,-7.0625v-70.01762c0,-9.34016 -6.99541,-17.32784 -15.92947,-18.18241zM148.3125,109.46875h7.0625v35.3125h-7.0625zM28.25,173.03125v-127.125c0,-1.94572 1.582,-3.53125 3.53125,-3.53125h105.9375c1.94925,0 3.53125,1.58553 3.53125,3.53125v127.125c0,3.84906 1.29597,7.55687 3.57716,10.59375h-105.98341c-5.84069,0 -10.59375,-4.75306 -10.59375,-10.59375zM169.5,84.73941v87.688c0,5.74181 -4.19513,10.63966 -9.54144,11.15169c-3.02275,0.30016 -5.94309,-0.66741 -8.17484,-2.70494c-2.20703,-2.00575 -3.47122,-4.86606 -3.47122,-7.84291v-21.1875h7.0625c3.89497,0 7.0625,-3.16753 7.0625,-7.0625v-35.3125c0,-3.89497 -3.16753,-7.0625 -7.0625,-7.0625h-7.0625v-7.0625h14.125v-7.0625h-14.125v-14.125h24.76112c-2.27766,3.03687 -3.57362,6.73763 -3.57362,10.58316zM197.75,155.375h-21.1875v-17.65625h7.0625v-7.0625h-7.0625v-7.0625h7.0625v-7.0625h-7.0625v-7.0625h7.0625v-7.0625h-7.0625v-7.0625h7.0625v-7.0625h-7.0625v-3.54184c0,-2.97331 1.26066,-5.82303 3.46416,-7.82878c2.23881,-2.034 5.11325,-2.9945 8.18544,-2.70141c5.34631,0.51203 9.53438,5.40634 9.53438,11.14816v70.01762z" fill="url(#color-2_44030_gr2)"/>
            <path d="M38.84375,74.15625h84.75v7.0625h-84.75z" fill="url(#color-3_44030_gr3)"/>
            <path d="M38.84375,88.28125h84.75v7.0625h-84.75z" fill="url(#color-4_44030_gr4)"/>
            <path d="M38.84375,102.40625h45.90625v7.0625h-45.90625z" fill="url(#color-5_44030_gr5)"/>
            <path d="M38.84375,116.53125h45.90625v7.0625h-45.90625z" fill="url(#color-6_44030_gr6)"/>
            <path d="M38.84375,130.65625h45.90625v7.0625h-45.90625z" fill="url(#color-7_44030_gr7)"/>
            <path d="M38.84375,144.78125h45.90625v7.0625h-45.90625z" fill="url(#color-8_44030_gr8)"/>
        </g>
    </g>
</svg>
